<svg width="16" height="16" viewBox="0 0 16 16" fill="none" xmlns="http://www.w3.org/2000/svg">
<path fill-rule="evenodd" clip-rule="evenodd" d="M9.11136 14.6667C9.09736 14.6667 9.08403 14.666 9.0707 14.6653C8.76936 14.6473 8.51803 14.4287 8.45803 14.1327L7.4327 9.088C7.37936 8.82533 7.1747 8.62067 6.91203 8.56733L1.86736 7.54133C1.57136 7.482 1.3527 7.23067 1.3347 6.92933C1.3167 6.62733 1.5027 6.35133 1.78936 6.25667L12.456 2.70133C12.6954 2.62 12.9594 2.68267 13.138 2.862C13.3167 3.04067 13.3787 3.30467 13.2994 3.544L9.74336 14.2107C9.6527 14.4847 9.3967 14.6667 9.11136 14.6667Z" fill="black"/>
<mask id="mask0_1_54" style="mask-type:luminance" maskUnits="userSpaceOnUse" x="1" y="2" width="13" height="13">
<path fill-rule="evenodd" clip-rule="evenodd" d="M9.11136 14.6667C9.09736 14.6667 9.08403 14.666 9.0707 14.6653C8.76936 14.6473 8.51803 14.4287 8.45803 14.1327L7.4327 9.088C7.37936 8.82533 7.1747 8.62067 6.91203 8.56733L1.86736 7.54133C1.57136 7.482 1.3527 7.23067 1.3347 6.92933C1.3167 6.62733 1.5027 6.35133 1.78936 6.25667L12.456 2.70133C12.6954 2.62 12.9594 2.68267 13.138 2.862C13.3167 3.04067 13.3787 3.30467 13.2994 3.544L9.74336 14.2107C9.6527 14.4847 9.3967 14.6667 9.11136 14.6667Z" fill="white"/>
</mask>
<g mask="url(#mask0_1_54)">
<rect width="16" height="16" fill="black"/>
</g>
</svg>
